<svg class="{{ include.class }}" viewBox="0 0 950 907" xmlns="http://www.w3.org/2000/svg">
    <g id="Page-2" stroke="none" stroke-width="1" fill="none">
                <g id="Oval-39-Copy-2">
                    <use fill="black" fill-opacity="1" filter="url(#superfilter)" xlink:href="#cube1"></use>
                    <polygon fill="#f5a39a" id="cube1" points="441.874751 695.978539 168.781136 839.358004 220.937375 535.675425 5.1159077e-13 320.606229 305.327943 276.299538 441.874751 0 578.421558 276.299538 883.749501 320.606229 662.812126 535.675425 714.968365 839.358004"></polygon>
                </g>
                <g id="Oval-39-Copy-3">
                    <use fill="black" fill-opacity="1" filter="url(#superfilter)" xlink:href="#cube2"></use>
                    <polygon fill="#f5a39a" id="cube2" points="441.874751 631.606969 237.792763 738.753986 276.768954 511.812963 111.663158 351.092438 339.833757 317.982189 441.874751 111.504425 543.915745 317.982189 772.086344 351.092438 606.980547 511.812963 645.956739 738.753986"></polygon>
                </g>
                <g id="Oval-39-Copy-5">
                    <use fill="black" fill-opacity="1" filter="url(#superfilter)" xlink:href="#cube3"></use>
                    <polygon fill="#f5a39a" id="cube3" points="441.874751 567.235399 306.80439 638.149968 332.600533 487.9505 223.326316 381.578647 374.33957 359.66484 441.874751 223.00885 509.409931 359.66484 660.423186 381.578647 551.148968 487.9505 576.945112 638.149968"></polygon>
                </g>
                <g id="Oval-39-Copy-6">
                    <use fill="black" fill-opacity="1" filter="url(#superfilter)" xlink:href="#cube4"></use>
                    <polygon fill="#f5a39a" id="cube4" points="441.874751 502.863828 375.816017 537.54595 388.432112 464.088038 334.989474 412.064855 408.845384 401.347491 441.874751 334.513274 474.904118 401.347491 548.760028 412.064855 495.317389 464.088038 507.933485 537.54595"></polygon>
                </g>
    </g>
</svg>

