<svg class="{{ include.class }}" viewBox="0 0 1062 438" xmlns="http://www.w3.org/2000/svg">
    <ellipse fill="#779EE5" cx="32.175" cy="407.177" rx="30.175" ry="30.177"/>
    <path fill="#B28AFC" d="M504 63h43.27v43.272H504z"/>
    <path fill="#46CDCF" d="M318 344h-47l23.5-47"/>
    <path fill="#F5A39A" d="M626.55 313h15.853l-5.34 12.24 15.065-.967-26.842 31.93 8.346-22.454L622 336.754"/>
    <path fill="#FFDE7D" d="M245.433 27.497L234.66 33.16l2.056-11.997L228 12.666l12.046-1.75L245.433 0l5.387 10.916 12.045 1.75-8.716 8.497 2.056 11.998"/>
    <path fill="#F5A39A" d="M6.062 14h21.113l-7.11 16.3 20.063-1.286-35.75 42.528 11.115-29.906L0 45.64"/>
    <ellipse fill="#779EE5" cx="801.175" cy="33.177" rx="30.175" ry="30.177"/>
    <path fill="#FFDE7D" d="M1029.433 111.156l-20.045 10.54 3.828-22.323L997 83.565l22.41-3.256L1029.433 60l10.022 20.31 22.41 3.255-16.216 15.808 3.826 22.322"/>
</svg>
