<svg class="{{ include.class }}" viewBox="0 0 1170 451" xmlns="http://www.w3.org/2000/svg">
    <path fill="#46CDCF" d="M1060 451h-47l23.5-47"/>
    <path fill="#F5A39A" d="M6.062 0h21.113l-7.11 16.3 20.063-1.286-35.75 42.528 11.115-29.906L0 31.64"/>
    <ellipse fill="#779EE5" cx="909.175" cy="36.177" rx="30.175" ry="30.177"/>
    <path fill="#FFDE7D" d="M1137.433 114.156l-20.045 10.54 3.828-22.323L1105 86.565l22.41-3.256L1137.433 63l10.022 20.31 22.41 3.255-16.216 15.808 3.826 22.322"/>
    <path fill="#B28AFC" d="M612 66h43.27v43.272H612z"/>
    <path fill="#F5A39A" d="M734.55 316h15.853l-5.34 12.24 15.065-.967-26.842 31.93 8.346-22.454L730 339.754"/>
    <path fill="#FFDE7D" d="M353.433 30.497L342.66 36.16l2.056-11.997L336 15.666l12.046-1.75L353.433 3l5.387 10.916 12.045 1.75-8.716 8.497 2.056 11.998"/>
</svg>
