<svg class="{{ include.class }}" viewBox="0 0 70 21" xmlns="http://www.w3.org/2000/svg">
    <path d="M0 20.08h5.025v-7.914L4.38 8.334l.14-.028 1.74 3.972 4.493 7.803h5.08V.28h-4.996v8.977c.028 0 .533 3.412.562 3.412l-.142.027-1.684-3.97L4.774.28H0v19.8zM24.06 4.98h8.76V.28H18.98v19.8h13.84v-4.726h-8.76V12.39h8.058V8.055H24.06V4.978zM49.918 6.32C50.03 2.546 47.25.28 43.46.28h-7.973v19.8H43.6c4.41 0 6.57-1.93 7.076-5.117.253-1.51-.084-4.056-2.808-5.426 1.432-.727 2.022-2.32 2.05-3.216zM40.54 8.028V4.503h2.92c2.527 0 2.443 3.524 0 3.524h-2.92zm0 7.663v-4.056h2.92c2.976 0 3.033 4.056 0 4.056h-2.92zm11.99-2.126c0 4.53 4.126 6.796 8.253 6.796s8.226-2.265 8.226-6.796V6.796C69.01 2.266 64.88 0 60.754 0c-4.127 0-8.226 2.237-8.226 6.796v6.768zm5.024-6.768c0-1.454 1.572-2.237 3.145-2.237 1.627 0 3.284.698 3.284 2.236v6.768c0 1.427-1.6 2.154-3.2 2.154s-3.23-.7-3.23-2.154V6.796z"/>
</svg>
