<svg viewBox="0 0 70 21" xmlns="http://www.w3.org/2000/svg">
    <g id="Desktop-HD-Copy-2" transform="translate(-449.000000, -5313.000000)">
        <g id="Награди-Copy-6" transform="translate(70.000000, 5243.000000)">
            <g id="Group-11" transform="translate(285.000000, 63.000000)">
                <path d="M94,27.0806335 L99.0254712,27.0806335 L99.0254712,19.1658434 L98.3797403,15.3343019 L98.5201166,15.3063345 L100.260783,19.2777133 L104.752824,27.0806335 L109.834446,27.0806335 L109.834446,7.27967456 L104.83705,7.27967456 L104.83705,16.257228 C104.865125,16.257228 105.37048,19.6692576 105.398555,19.6692576 L105.258179,19.6972251 L103.573663,15.7258463 L98.7727939,7.27967456 L94,7.27967456 L94,27.0806335 Z M118.060496,11.9782072 L126.819977,11.9782072 L126.819977,7.27967456 L112.978875,7.27967456 L112.978875,27.0806335 L126.819977,27.0806335 L126.819977,22.3541334 L118.060496,22.3541334 L118.060496,19.3895831 L126.118095,19.3895831 L126.118095,15.0546274 L118.060496,15.0546274 L118.060496,11.9782072 Z M143.917809,13.3206451 C144.03011,9.54503851 141.25066,7.27967456 137.4605,7.27967456 L129.487126,7.27967456 L129.487126,27.0806335 L137.600876,27.0806335 C142.008692,27.0806335 144.170486,25.1508791 144.675841,21.962589 C144.928518,20.4523464 144.591615,17.9073079 141.868315,16.5369026 C143.300153,15.8097487 143.889734,14.2156037 143.917809,13.3206451 L143.917809,13.3206451 Z M134.540673,15.0266599 L134.540673,11.5027604 L137.4605,11.5027604 C139.987273,11.5027604 139.903047,15.0266599 137.4605,15.0266599 L134.540673,15.0266599 Z M134.540673,22.6897429 L134.540673,18.6344618 L137.4605,18.6344618 C140.436477,18.6344618 140.492628,22.6897429 137.4605,22.6897429 L134.540673,22.6897429 Z M146.528808,20.5642162 C146.528808,25.0949441 150.655871,27.3603081 154.782934,27.3603081 C158.909997,27.3603081 163.008985,25.0949441 163.008985,20.5642162 L163.008985,13.7960918 C163.008985,9.26536395 158.881922,7 154.754859,7 C150.627796,7 146.528808,9.23739649 146.528808,13.7960918 L146.528808,20.5642162 Z M151.554279,13.7960918 C151.554279,12.3417841 153.126494,11.5586954 154.698708,11.5586954 C156.327073,11.5586954 157.983513,12.2578818 157.983513,13.7960918 L157.983513,20.5642162 C157.983513,21.9905565 156.383224,22.7177104 154.782934,22.7177104 C153.182644,22.7177104 151.554279,22.018524 151.554279,20.5642162 L151.554279,13.7960918 Z" id="NEBO"></path>
            </g>
        </g>
    </g>
</svg>
