<svg viewBox="0 0 24 20" xmlns="http://www.w3.org/2000/svg">
    <path d="M2.762 8.604L6.08 20h11.84l3.318-11.396c.26.136.552.212.862.212 1.05 0 1.9-.875 1.9-1.954 0-1.08-.85-1.954-1.9-1.954-1.05 0-1.9.875-1.9 1.954 0 .353.09.684.25.97L15.6 9.816l-2.963-6.06c.683-.296 1.163-.99 1.163-1.802C13.8.874 12.95 0 11.9 0 10.85 0 10 .875 10 1.954c0 .876.56 1.617 1.332 1.865L8.4 9.815 3.55 7.832c.16-.286.25-.617.25-.97 0-1.08-.85-1.954-1.9-1.954-1.05 0-1.9.875-1.9 1.954 0 1.08.85 1.954 1.9 1.954.31 0 .603-.076.862-.212z" fill="#3469CB" fill-rule="evenodd"/>
</svg>
